PathFileType	4	(X/Y/Z)	C:/Users/opensim2020/Desktop/walking_exp_matlab/subject03_walking09_straight_02.trc																																																																																																																																											
DataRate	CameraRate	NumFrames	NumMarkers	Units	OrigDataRate	OrigDataStartFrame	OrigNumFrames																																																																																																																																							
100	100	4	47	mm	100	2018	364																																																																																																																																							
Frame#	Time	LFHD			RFHD			LBHD			RBHD			C7			T10			CLAV			STRN			RBAK			LSHO			LUPA			LELB			LFRM			LWRA			LWRB			LFIN			RSHO			RUPA			RELB			RFRM			RWRA			RWRB			RFIN			LASI			RASI			LPSI			RPSI			LTHI			LKNE			LTIB			LANK			LHEE			LTOE			RTHI			RKNE			RTIB			RANK			RHEE			RTOE			*39			*40			*41			*42			*43			*44			*45			*46		
		X1	Y1	Z1	X2	Y2	Z2	X3	Y3	Z3	X4	Y4	Z4	X5	Y5	Z5	X6	Y6	Z6	X7	Y7	Z7	X8	Y8	Z8	X9	Y9	Z9	X10	Y10	Z10	X11	Y11	Z11	X12	Y12	Z12	X13	Y13	Z13	X14	Y14	Z14	X15	Y15	Z15	X16	Y16	Z16	X17	Y17	Z17	X18	Y18	Z18	X19	Y19	Z19	X20	Y20	Z20	X21	Y21	Z21	X22	Y22	Z22	X23	Y23	Z23	X24	Y24	Z24	X25	Y25	Z25	X26	Y26	Z26	X27	Y27	Z27	X28	Y28	Z28	X29	Y29	Z29	X30	Y30	Z30	X31	Y31	Z31	X32	Y32	Z32	X33	Y33	Z33	X34	Y34	Z34	X35	Y35	Z35	X36	Y36	Z36	X37	Y37	Z37	X38	Y38	Z38	X39	Y39	Z39	X40	Y40	Z40	X41	Y41	Z41	X42	Y42	Z42	X43	Y43	Z43	X44	Y44	Z44	X45	Y45	Z45	X46	Y46	Z46	X47	Y47	Z47
																																																																																																																																														
183	1.82	-228.76985	1612.05957	-1497.64612	-243.70786	1614.78003	-1365.4176	-352.07578	1556.70874	-1506.07263	-361.64777	1559.66479	-1375.57336	-381.37598	1408.20215	-1439.49292	-431.25003	1097.7113	-1436.26306	-262.85956	1325.04333	-1440.67566	-231.12833	1157.49597	-1441.72729	-441.90353	1241.37866	-1336.40771	-310.9201	1361.32495	-1596.86926	-349.01859	1164.73132	-1662.33984	-357.77063	1041.08435	-1671.99109	-335.85971	913.01312	-1666.56665	-315.88654	797.96442	-1630.92676	-343.93167	799.42639	-1679.36511	-327.65683	717.64404	-1666.25769	-298.90173	1351.9635	-1280.95593	-272.53543	1131.92249	-1208.10059	-238.10072	1024.56079	-1196.88342	-194.85844	894.80841	-1199.3125	-149.39577	808.80304	-1240.104	-174.98903	796.50897	-1194.24072	-138.26328	733.12708	-1207.28882	-260.72964	930.30847	-1549.26843	-273.34537	928.27393	-1310.50757	-426.32742	947.99249	-1509.35425	-430.60678	961.70905	-1359.59302	-250.90071	630.38202	-1598.82947	-187.62291	467.625	-1549.85083	-174.13084	278.22113	-1552.60583	-116.04801	75.1445	-1520.00635	-142.28168	31.31139	-1477.7804	37.20366	74.55673	-1503.11646	-366.36047	639.50586	-1281.62463	-385.27869	460.77847	-1318.99597	-476.07126	289.18872	-1322.47437	-556.81921	88.5406	-1377.0675	-604.55249	65.21988	-1429.65845	-422.05896	35.31281	-1386.84229	NaN	NaN	NaN	NaN	NaN	NaN	NaN	NaN	NaN	NaN	NaN	NaN	NaN	NaN	NaN	NaN	NaN	NaN	NaN	NaN	NaN	NaN	NaN	NaN
184	1.83	-221.02977	1611.677	-1498.50818	-235.94505	1614.52161	-1366.3136	-344.28842	1556.20398	-1507.1554	-353.83841	1559.1886	-1376.26526	-373.37363	1407.8186	-1440.52014	-423.04782	1097.28052	-1437.51355	-254.71133	1324.63281	-1441.30432	-223.05713	1157.01868	-1442.14893	-434.08939	1240.95728	-1337.56604	-302.48428	1360.84656	-1597.65576	-340.78183	1164.16968	-1662.73877	-349.7059	1040.48584	-1671.7533	-328.51001	912.31628	-1666.29761	-308.95242	797.21484	-1630.46643	-337.08563	798.69946	-1678.84839	-321.29941	716.85352	-1665.53455	-291.19479	1351.56421	-1281.62036	-265.1684	1131.34668	-1209.33472	-230.93474	1023.86206	-1198.31421	-187.92422	894.00122	-1200.95459	-142.49411	807.99805	-1241.89111	-168.21344	795.65759	-1196.00952	-131.61731	732.08228	-1209.25647	-251.97435	929.64667	-1549.59009	-265.74878	927.77057	-1310.8092	-417.595	947.63123	-1510.51501	-422.9176	961.47437	-1360.78674	-243.40532	629.55078	-1598.54224	-181.00287	466.47159	-1549.6853	-167.88326	277.16577	-1552.94067	-110.76997	74.19044	-1520.85107	-137.16568	30.34504	-1478.6228	42.72479	73.03426	-1502.15662	-360.41006	639.49054	-1281.33374	-379.96109	460.72195	-1318.90564	-472.75424	290.01361	-1322.42163	-555.85193	90.3288	-1376.8678	-603.75433	67.5199	-1429.5791	-421.85092	35.22985	-1386.68481	NaN	NaN	NaN	NaN	NaN	NaN	NaN	NaN	NaN	NaN	NaN	NaN	NaN	NaN	NaN	NaN	NaN	NaN	NaN	NaN	NaN	NaN	NaN	NaN
185	1.84	-213.19897	1611.40881	-1499.45447	-228.13052	1614.33948	-1367.19287	-336.43332	1555.71729	-1507.98145	-345.91534	1558.79028	-1377.0636	-365.08072	1407.39807	-1441.63928	-414.6254	1096.83997	-1438.76941	-246.47479	1324.28967	-1441.97339	-214.6496	1156.67261	-1442.67249	-425.95001	1240.44153	-1338.8136	-293.80569	1360.50171	-1598.49988	-332.36188	1163.66638	-1663.07886	-341.57858	1039.95276	-1671.79053	-320.92746	911.68823	-1666.06323	-301.59482	796.86401	-1630.06543	-330.04715	798.14642	-1678.49756	-314.67093	716.18787	-1664.89929	-283.40289	1351.20215	-1282.45044	-257.81573	1130.8175	-1210.55579	-223.89726	1023.20361	-1199.74487	-181.1125	893.29474	-1202.58752	-136.17319	807.22809	-1243.84766	-161.63945	794.86743	-1197.76563	-125.1316	731.18549	-1211.16821	-243.09938	929.02869	-1549.90369	-258.00543	927.35852	-1311.17798	-408.89371	947.64447	-1511.76343	-414.7084	961.11359	-1362.0636	-235.64622	628.91486	-1598.35559	-174.41208	465.414	-1549.64063	-162.37837	276.03723	-1553.31836	-106.88712	72.66277	-1521.1626	-134.2802	30.20201	-1479.62952	46.64734	70.20055	-1500.90454	-354.15488	639.42603	-1281.64392	-374.33914	460.58945	-1318.79492	-469.24948	290.87378	-1322.36353	-554.9046	92.16385	-1376.64453	-603.14642	70.16105	-1429.33264	-421.63876	35.19515	-1386.53894	NaN	NaN	NaN	NaN	NaN	NaN	NaN	NaN	NaN	NaN	NaN	NaN	NaN	NaN	NaN	NaN	NaN	NaN	NaN	NaN	NaN	NaN	NaN	NaN
186	1.85	-205.43362	1611.20801	-1500.30127	-220.35956	1614.20349	-1368.07751	-328.51535	1555.32813	-1508.92102	-337.98926	1558.55579	-1378.27991	-356.86395	1407.02844	-1442.70154	-406.0412	1096.43945	-1440.0343	-238.0593	1324.0979	-1442.71045	-206.06699	1156.49695	-1443.20972	-417.92551	1240.08789	-1340.13806	-285.10538	1360.17029	-1599.39124	-323.75162	1163.26135	-1663.64294	-333.54364	1039.51575	-1672.14624	-313.16711	911.13324	-1665.90723	-294.56491	796.14612	-1629.75085	-322.6376	797.59729	-1678.11389	-307.90411	715.53821	-1664.27515	-275.65659	1350.948	-1283.2926	-250.49039	1130.43164	-1211.81287	-216.95094	1022.64648	-1201.10364	-174.47662	892.60095	-1204.10144	-129.10651	806.54987	-1245.32446	-155.14435	794.14575	-1199.52173	-118.91234	730.28766	-1212.98352	-234.00986	928.53741	-1550.31726	-250.03651	926.93762	-1311.60693	-399.91562	947.67804	-1513.02136	-406.64203	960.98413	-1363.2644	-227.55873	628.46021	-1598.26086	-167.55698	464.50174	-1549.87781	-157.59229	274.80838	-1553.54065	-103.98143	70.64105	-1520.48535	-133.56976	29.70095	-1479.36646	48.67422	64.59732	-1499.61792	-347.56467	639.27948	-1282.08875	-368.505	460.50104	-1318.71033	-465.55328	291.81516	-1322.19604	-553.86267	94.32724	-1376.38025	-602.10846	72.83275	-1429.16467	-421.36859	35.12909	-1386.35645	NaN	NaN	NaN	NaN	NaN	NaN	NaN	NaN	NaN	NaN	NaN	NaN	NaN	NaN	NaN	NaN	NaN	NaN	NaN	NaN	NaN	NaN	NaN	NaN
